<mxfile host="app.diagrams.net" modified="2023-11-13T12:33:29.277Z" agent="Mozilla/5.0 (Windows NT 10.0; Win64; x64) AppleWebKit/537.36 (KHTML, like Gecko) Chrome/116.0.5845.837 YaBrowser/23.9.4.837 Yowser/2.5 Safari/537.36" etag="UCqIhteJXgeZrmzQ4NHS" version="22.1.0" type="device">
  <diagram name="Page-1" id="e7e014a7-5840-1c2e-5031-d8a46d1fe8dd">
    <mxGraphModel dx="1626" dy="841" grid="1" gridSize="10" guides="1" tooltips="1" connect="1" arrows="1" fold="1" page="1" pageScale="1" pageWidth="1169" pageHeight="826" background="none" math="0" shadow="0">
      <root>
        <mxCell id="0" />
        <mxCell id="1" parent="0" />
        <mxCell id="2" value="Продавец" style="swimlane;whiteSpace=wrap" parent="1" vertex="1">
          <mxGeometry x="169" y="128" width="275.5" height="1022" as="geometry" />
        </mxCell>
        <mxCell id="g0RaJk6Kx-tsFMLrxAM0-41" value="Начало" style="rounded=1;whiteSpace=wrap;html=1;arcSize=40;fontColor=#000000;fillColor=#ffffc0;strokeColor=#ff0000;" parent="2" vertex="1">
          <mxGeometry x="55.5" y="132" width="120" height="40" as="geometry" />
        </mxCell>
        <mxCell id="g0RaJk6Kx-tsFMLrxAM0-46" value="" style="ellipse;html=1;shape=startState;fillColor=#000000;strokeColor=#ff0000;" parent="2" vertex="1">
          <mxGeometry x="100.5" y="42" width="30" height="30" as="geometry" />
        </mxCell>
        <mxCell id="g0RaJk6Kx-tsFMLrxAM0-47" value="" style="edgeStyle=orthogonalEdgeStyle;html=1;verticalAlign=bottom;endArrow=open;endSize=8;strokeColor=#ff0000;rounded=0;" parent="2" source="g0RaJk6Kx-tsFMLrxAM0-46" edge="1">
          <mxGeometry relative="1" as="geometry">
            <mxPoint x="115.5" y="132" as="targetPoint" />
          </mxGeometry>
        </mxCell>
        <mxCell id="g0RaJk6Kx-tsFMLrxAM0-52" value="&lt;b&gt;Подтверждение данных&lt;/b&gt;" style="html=1;whiteSpace=wrap;" parent="2" vertex="1">
          <mxGeometry x="60.5" y="212" width="110" height="50" as="geometry" />
        </mxCell>
        <mxCell id="g0RaJk6Kx-tsFMLrxAM0-66" value="Просмотр наличия товаров на сайте" style="html=1;whiteSpace=wrap;fontStyle=1" parent="2" vertex="1">
          <mxGeometry x="65.5" y="362" width="110" height="50" as="geometry" />
        </mxCell>
        <mxCell id="g0RaJk6Kx-tsFMLrxAM0-71" value="Проверка на наличие скидок" style="html=1;whiteSpace=wrap;fontStyle=1" parent="2" vertex="1">
          <mxGeometry x="65.5" y="512" width="110" height="50" as="geometry" />
        </mxCell>
        <mxCell id="g0RaJk6Kx-tsFMLrxAM0-78" value="Запросить отчет по запасам товаров" style="html=1;whiteSpace=wrap;fontStyle=1" parent="2" vertex="1">
          <mxGeometry x="66" y="602" width="110" height="50" as="geometry" />
        </mxCell>
        <mxCell id="g0RaJk6Kx-tsFMLrxAM0-86" value="Прислать уведомление" style="html=1;whiteSpace=wrap;fontStyle=1" parent="2" vertex="1">
          <mxGeometry x="66" y="752" width="110" height="50" as="geometry" />
        </mxCell>
        <mxCell id="g0RaJk6Kx-tsFMLrxAM0-89" value="" style="ellipse;html=1;shape=endState;fillColor=#000000;strokeColor=#ff0000;" parent="2" vertex="1">
          <mxGeometry x="101" y="912" width="30" height="30" as="geometry" />
        </mxCell>
        <mxCell id="g0RaJk6Kx-tsFMLrxAM0-90" value="&lt;b&gt;Конец&lt;/b&gt;" style="rounded=1;whiteSpace=wrap;html=1;arcSize=40;fontColor=#000000;fillColor=#ffffc0;strokeColor=#ff0000;" parent="2" vertex="1">
          <mxGeometry x="56" y="972" width="120" height="40" as="geometry" />
        </mxCell>
        <mxCell id="g0RaJk6Kx-tsFMLrxAM0-91" value="" style="edgeStyle=orthogonalEdgeStyle;html=1;verticalAlign=bottom;endArrow=open;endSize=8;strokeColor=#ff0000;rounded=0;entryX=0.5;entryY=1;entryDx=0;entryDy=0;" parent="2" source="g0RaJk6Kx-tsFMLrxAM0-90" target="g0RaJk6Kx-tsFMLrxAM0-89" edge="1">
          <mxGeometry relative="1" as="geometry">
            <mxPoint x="116" y="1062" as="targetPoint" />
          </mxGeometry>
        </mxCell>
        <mxCell id="3" value="Интернет-магазин" style="swimlane;whiteSpace=wrap" parent="1" vertex="1">
          <mxGeometry x="444.5" y="128" width="280" height="1022" as="geometry" />
        </mxCell>
        <mxCell id="g0RaJk6Kx-tsFMLrxAM0-51" value="Требуются данные для входа" style="html=1;whiteSpace=wrap;fontStyle=1" parent="3" vertex="1">
          <mxGeometry x="75.5" y="127" width="110" height="50" as="geometry" />
        </mxCell>
        <mxCell id="g0RaJk6Kx-tsFMLrxAM0-61" value="Данные верны?" style="rhombus;whiteSpace=wrap;html=1;fontColor=#000000;fillColor=#ffffc0;strokeColor=#ff0000;fontSize=11;fontStyle=1" parent="3" vertex="1">
          <mxGeometry x="75.5" y="212" width="104.5" height="58" as="geometry" />
        </mxCell>
        <mxCell id="g0RaJk6Kx-tsFMLrxAM0-62" value="да" style="edgeStyle=orthogonalEdgeStyle;html=1;align=left;verticalAlign=bottom;endArrow=open;endSize=8;strokeColor=#ff0000;rounded=0;entryX=1;entryY=0.5;entryDx=0;entryDy=0;" parent="3" source="g0RaJk6Kx-tsFMLrxAM0-61" target="g0RaJk6Kx-tsFMLrxAM0-65" edge="1">
          <mxGeometry x="-1" relative="1" as="geometry">
            <mxPoint x="265.5" y="302" as="targetPoint" />
            <Array as="points">
              <mxPoint x="246" y="241" />
              <mxPoint x="246" y="242" />
              <mxPoint x="266" y="242" />
              <mxPoint x="266" y="417" />
            </Array>
          </mxGeometry>
        </mxCell>
        <mxCell id="g0RaJk6Kx-tsFMLrxAM0-63" value="нет" style="edgeStyle=orthogonalEdgeStyle;html=1;align=left;verticalAlign=top;endArrow=open;endSize=8;strokeColor=#ff0000;rounded=0;entryX=0.5;entryY=0;entryDx=0;entryDy=0;" parent="3" source="g0RaJk6Kx-tsFMLrxAM0-61" target="g0RaJk6Kx-tsFMLrxAM0-64" edge="1">
          <mxGeometry x="-1" relative="1" as="geometry">
            <mxPoint x="115.5" y="312" as="targetPoint" />
          </mxGeometry>
        </mxCell>
        <mxCell id="g0RaJk6Kx-tsFMLrxAM0-64" value="Перезайдите в аккаунт или создайте новый" style="html=1;whiteSpace=wrap;fontStyle=1" parent="3" vertex="1">
          <mxGeometry x="85.5" y="322" width="110" height="50" as="geometry" />
        </mxCell>
        <mxCell id="g0RaJk6Kx-tsFMLrxAM0-65" value="Отображение системной информации" style="html=1;whiteSpace=wrap;fontStyle=1" parent="3" vertex="1">
          <mxGeometry x="85.5" y="392" width="110" height="50" as="geometry" />
        </mxCell>
        <mxCell id="g0RaJk6Kx-tsFMLrxAM0-72" value="Отобразить информацию о наличии товаров&amp;nbsp;" style="html=1;whiteSpace=wrap;fontStyle=1" parent="3" vertex="1">
          <mxGeometry x="85.5" y="462" width="110" height="58" as="geometry" />
        </mxCell>
        <mxCell id="g0RaJk6Kx-tsFMLrxAM0-76" value="Показать скидки" style="html=1;whiteSpace=wrap;fontStyle=1" parent="3" vertex="1">
          <mxGeometry x="95.5" y="552" width="110" height="50" as="geometry" />
        </mxCell>
        <mxCell id="g0RaJk6Kx-tsFMLrxAM0-80" value="Достаточно ли товаров?" style="rhombus;whiteSpace=wrap;html=1;fontColor=#000000;fillColor=#ffffc0;strokeColor=#ff0000;fontStyle=1" parent="3" vertex="1">
          <mxGeometry x="75.5" y="662" width="134.5" height="58" as="geometry" />
        </mxCell>
        <mxCell id="g0RaJk6Kx-tsFMLrxAM0-81" value="нет" style="edgeStyle=orthogonalEdgeStyle;html=1;align=left;verticalAlign=bottom;endArrow=open;endSize=8;strokeColor=#ff0000;rounded=0;" parent="3" source="g0RaJk6Kx-tsFMLrxAM0-80" target="g0RaJk6Kx-tsFMLrxAM0-85" edge="1">
          <mxGeometry x="-1" relative="1" as="geometry">
            <mxPoint x="255.5" y="742" as="targetPoint" />
            <Array as="points">
              <mxPoint x="256" y="691" />
              <mxPoint x="256" y="887" />
            </Array>
          </mxGeometry>
        </mxCell>
        <mxCell id="g0RaJk6Kx-tsFMLrxAM0-82" value="да" style="edgeStyle=orthogonalEdgeStyle;html=1;align=left;verticalAlign=top;endArrow=open;endSize=8;strokeColor=#ff0000;rounded=0;entryX=0.5;entryY=0;entryDx=0;entryDy=0;" parent="3" source="g0RaJk6Kx-tsFMLrxAM0-80" target="g0RaJk6Kx-tsFMLrxAM0-84" edge="1">
          <mxGeometry x="-1" relative="1" as="geometry">
            <mxPoint x="115.5" y="762" as="targetPoint" />
            <Array as="points">
              <mxPoint x="143" y="782" />
              <mxPoint x="143" y="782" />
            </Array>
          </mxGeometry>
        </mxCell>
        <mxCell id="g0RaJk6Kx-tsFMLrxAM0-84" value="Запасов хватает" style="html=1;whiteSpace=wrap;fontStyle=1" parent="3" vertex="1">
          <mxGeometry x="87.75" y="792" width="110" height="50" as="geometry" />
        </mxCell>
        <mxCell id="g0RaJk6Kx-tsFMLrxAM0-85" value="Нужно пополнить запасы" style="html=1;whiteSpace=wrap;fontStyle=1" parent="3" vertex="1">
          <mxGeometry x="87.5" y="862" width="110" height="50" as="geometry" />
        </mxCell>
        <mxCell id="g0RaJk6Kx-tsFMLrxAM0-42" value="" style="edgeStyle=orthogonalEdgeStyle;html=1;verticalAlign=bottom;endArrow=open;endSize=8;strokeColor=#ff0000;rounded=0;entryX=0;entryY=0.5;entryDx=0;entryDy=0;" parent="1" source="g0RaJk6Kx-tsFMLrxAM0-41" target="g0RaJk6Kx-tsFMLrxAM0-51" edge="1">
          <mxGeometry relative="1" as="geometry">
            <mxPoint x="400" y="310" as="targetPoint" />
          </mxGeometry>
        </mxCell>
        <mxCell id="g0RaJk6Kx-tsFMLrxAM0-53" value="" style="edgeStyle=orthogonalEdgeStyle;html=1;verticalAlign=bottom;endArrow=open;endSize=8;strokeColor=#ff0000;rounded=0;entryX=0;entryY=0.5;entryDx=0;entryDy=0;" parent="1" edge="1">
          <mxGeometry relative="1" as="geometry">
            <mxPoint x="520" y="280" as="targetPoint" />
            <mxPoint x="350" y="280" as="sourcePoint" />
          </mxGeometry>
        </mxCell>
        <mxCell id="g0RaJk6Kx-tsFMLrxAM0-54" value="" style="edgeStyle=orthogonalEdgeStyle;html=1;verticalAlign=bottom;endArrow=open;endSize=8;strokeColor=#ff0000;rounded=0;entryX=0.5;entryY=0;entryDx=0;entryDy=0;exitX=0.5;exitY=1;exitDx=0;exitDy=0;" parent="1" source="g0RaJk6Kx-tsFMLrxAM0-51" target="g0RaJk6Kx-tsFMLrxAM0-52" edge="1">
          <mxGeometry relative="1" as="geometry">
            <mxPoint x="700" y="400" as="targetPoint" />
            <mxPoint x="520" y="400" as="sourcePoint" />
          </mxGeometry>
        </mxCell>
        <mxCell id="g0RaJk6Kx-tsFMLrxAM0-68" value="" style="edgeStyle=orthogonalEdgeStyle;html=1;verticalAlign=bottom;endArrow=open;endSize=8;strokeColor=#ff0000;rounded=0;entryX=0.5;entryY=1;entryDx=0;entryDy=0;exitX=0;exitY=0.5;exitDx=0;exitDy=0;" parent="1" source="g0RaJk6Kx-tsFMLrxAM0-64" target="g0RaJk6Kx-tsFMLrxAM0-52" edge="1">
          <mxGeometry relative="1" as="geometry">
            <mxPoint x="540" y="450" as="targetPoint" />
            <mxPoint x="360" y="450" as="sourcePoint" />
          </mxGeometry>
        </mxCell>
        <mxCell id="g0RaJk6Kx-tsFMLrxAM0-70" value="" style="edgeStyle=orthogonalEdgeStyle;html=1;verticalAlign=bottom;endArrow=open;endSize=8;strokeColor=#ff0000;rounded=0;entryX=1;entryY=0.5;entryDx=0;entryDy=0;exitX=0;exitY=0.5;exitDx=0;exitDy=0;" parent="1" source="g0RaJk6Kx-tsFMLrxAM0-65" target="g0RaJk6Kx-tsFMLrxAM0-66" edge="1">
          <mxGeometry relative="1" as="geometry">
            <mxPoint x="414.5" y="630" as="targetPoint" />
            <mxPoint x="234.5" y="630" as="sourcePoint" />
          </mxGeometry>
        </mxCell>
        <mxCell id="g0RaJk6Kx-tsFMLrxAM0-74" value="" style="edgeStyle=orthogonalEdgeStyle;html=1;verticalAlign=bottom;endArrow=open;endSize=8;strokeColor=#ff0000;rounded=0;entryX=0;entryY=0.5;entryDx=0;entryDy=0;exitX=0.5;exitY=1;exitDx=0;exitDy=0;" parent="1" source="g0RaJk6Kx-tsFMLrxAM0-66" target="g0RaJk6Kx-tsFMLrxAM0-72" edge="1">
          <mxGeometry relative="1" as="geometry">
            <mxPoint x="439.5" y="580" as="targetPoint" />
            <mxPoint x="269.5" y="580" as="sourcePoint" />
          </mxGeometry>
        </mxCell>
        <mxCell id="g0RaJk6Kx-tsFMLrxAM0-75" value="" style="edgeStyle=orthogonalEdgeStyle;html=1;verticalAlign=bottom;endArrow=open;endSize=8;strokeColor=#ff0000;rounded=0;entryX=1;entryY=0.5;entryDx=0;entryDy=0;exitX=0.5;exitY=1;exitDx=0;exitDy=0;" parent="1" source="g0RaJk6Kx-tsFMLrxAM0-72" target="g0RaJk6Kx-tsFMLrxAM0-71" edge="1">
          <mxGeometry relative="1" as="geometry">
            <mxPoint x="660" y="720" as="targetPoint" />
            <mxPoint x="490" y="720" as="sourcePoint" />
          </mxGeometry>
        </mxCell>
        <mxCell id="g0RaJk6Kx-tsFMLrxAM0-77" value="" style="edgeStyle=orthogonalEdgeStyle;html=1;verticalAlign=bottom;endArrow=open;endSize=8;strokeColor=#ff0000;rounded=0;entryX=0;entryY=0.5;entryDx=0;entryDy=0;exitX=0.5;exitY=1;exitDx=0;exitDy=0;" parent="1" source="g0RaJk6Kx-tsFMLrxAM0-71" target="g0RaJk6Kx-tsFMLrxAM0-76" edge="1">
          <mxGeometry relative="1" as="geometry">
            <mxPoint x="439.5" y="740" as="targetPoint" />
            <mxPoint x="269.5" y="740" as="sourcePoint" />
          </mxGeometry>
        </mxCell>
        <mxCell id="g0RaJk6Kx-tsFMLrxAM0-79" value="" style="edgeStyle=orthogonalEdgeStyle;html=1;verticalAlign=bottom;endArrow=open;endSize=8;strokeColor=#ff0000;rounded=0;entryX=1;entryY=0.5;entryDx=0;entryDy=0;exitX=0.5;exitY=1;exitDx=0;exitDy=0;" parent="1" source="g0RaJk6Kx-tsFMLrxAM0-76" target="g0RaJk6Kx-tsFMLrxAM0-78" edge="1">
          <mxGeometry relative="1" as="geometry">
            <mxPoint x="670" y="850" as="targetPoint" />
            <mxPoint x="500" y="850" as="sourcePoint" />
          </mxGeometry>
        </mxCell>
        <mxCell id="g0RaJk6Kx-tsFMLrxAM0-83" value="" style="edgeStyle=orthogonalEdgeStyle;html=1;verticalAlign=bottom;endArrow=open;endSize=8;strokeColor=#ff0000;rounded=0;entryX=0;entryY=0.5;entryDx=0;entryDy=0;exitX=0.5;exitY=1;exitDx=0;exitDy=0;" parent="1" source="g0RaJk6Kx-tsFMLrxAM0-78" target="g0RaJk6Kx-tsFMLrxAM0-80" edge="1">
          <mxGeometry relative="1" as="geometry">
            <mxPoint x="420" y="820" as="targetPoint" />
            <mxPoint x="250" y="820" as="sourcePoint" />
          </mxGeometry>
        </mxCell>
        <mxCell id="g0RaJk6Kx-tsFMLrxAM0-87" value="" style="edgeStyle=orthogonalEdgeStyle;html=1;verticalAlign=bottom;endArrow=open;endSize=8;strokeColor=#ff0000;rounded=0;entryX=1;entryY=0.5;entryDx=0;entryDy=0;exitX=0;exitY=0.5;exitDx=0;exitDy=0;" parent="1" source="g0RaJk6Kx-tsFMLrxAM0-84" target="g0RaJk6Kx-tsFMLrxAM0-86" edge="1">
          <mxGeometry relative="1" as="geometry">
            <mxPoint x="490" y="980" as="targetPoint" />
            <mxPoint x="320" y="980" as="sourcePoint" />
          </mxGeometry>
        </mxCell>
        <mxCell id="g0RaJk6Kx-tsFMLrxAM0-88" value="" style="edgeStyle=orthogonalEdgeStyle;html=1;verticalAlign=bottom;endArrow=open;endSize=8;strokeColor=#ff0000;rounded=0;entryX=0.5;entryY=1;entryDx=0;entryDy=0;exitX=0;exitY=0.5;exitDx=0;exitDy=0;" parent="1" source="g0RaJk6Kx-tsFMLrxAM0-85" target="g0RaJk6Kx-tsFMLrxAM0-86" edge="1">
          <mxGeometry relative="1" as="geometry">
            <mxPoint x="460" y="1020" as="targetPoint" />
            <mxPoint x="290" y="1020" as="sourcePoint" />
          </mxGeometry>
        </mxCell>
        <mxCell id="Qp90fb6vnGntKjyh2ZJg-3" value="" style="edgeStyle=orthogonalEdgeStyle;html=1;verticalAlign=bottom;endArrow=open;endSize=8;strokeColor=#ff0000;rounded=0;entryX=1;entryY=0.5;entryDx=0;entryDy=0;exitX=0.5;exitY=1;exitDx=0;exitDy=0;" edge="1" parent="1" source="g0RaJk6Kx-tsFMLrxAM0-85" target="g0RaJk6Kx-tsFMLrxAM0-89">
          <mxGeometry relative="1" as="geometry">
            <mxPoint x="660" y="1080" as="targetPoint" />
            <mxPoint x="490" y="1080" as="sourcePoint" />
          </mxGeometry>
        </mxCell>
      </root>
    </mxGraphModel>
  </diagram>
</mxfile>
